HIERARCHY
ROOT Root
{
  OFFSET 0.0 0.0 0.0
  CHANNELS 6 Xposition Yposition Zposition Zrotation Yrotation Xrotation
  JOINT Hips
  {
    OFFSET 0.0 100.0 0.0
    CHANNELS 6 Xposition Yposition Zposition Zrotation Yrotation Xrotation
    JOINT Spine1
    {
      OFFSET 5.003913 -0.037094 -0.013727
      CHANNELS 3 Zrotation Yrotation Xrotation
      JOINT Spine2
      {
        OFFSET 7.125363 -1e-06 0.0
        CHANNELS 3 Zrotation Yrotation Xrotation
        JOINT Chest
        {
          OFFSET 7.594027 1e-06 0.0
          CHANNELS 3 Zrotation Yrotation Xrotation
          JOINT Neck1
          {
            OFFSET 26.313086 -0.460272 -0.181672
            CHANNELS 3 Zrotation Yrotation Xrotation
            JOINT Neck2
            {
              OFFSET 8.045911 0.0 0.0
              CHANNELS 3 Zrotation Yrotation Xrotation
              JOINT Head
              {
                OFFSET 6.432774 0.0 0.0
                CHANNELS 3 Zrotation Yrotation Xrotation
                JOINT HeadEnd
                {
                  OFFSET 16.169773 0.06451 0.00362
                  CHANNELS 3 Zrotation Yrotation Xrotation
                }
                JOINT Jaw
                {
                  OFFSET 0.108741 3.12938 0.002639
                  CHANNELS 3 Zrotation Yrotation Xrotation
                }
                JOINT LeftEye
                {
                  OFFSET 4.45173 8.166359 3.206392
                  CHANNELS 3 Zrotation Yrotation Xrotation
                }
                JOINT RightEye
                {
                  OFFSET 4.436895 8.135758 -3.222429
                  CHANNELS 3 Zrotation Yrotation Xrotation
                }
              }
            }
          }
          JOINT LeftShoulder
          {
            OFFSET 23.218927 5.195579 1.621656
            CHANNELS 3 Zrotation Yrotation Xrotation
            JOINT LeftArm
            {
              OFFSET 15.902118 2e-06 -2e-06
              CHANNELS 3 Zrotation Yrotation Xrotation
              JOINT LeftForeArm
              {
                OFFSET 28.739307 0.0 -1e-06
                CHANNELS 3 Zrotation Yrotation Xrotation
                JOINT LeftHand
                {
                  OFFSET 27.093981 -4e-06 0.0
                  CHANNELS 3 Zrotation Yrotation Xrotation
                  JOINT LeftHandThumb1
                  {
                    OFFSET 2.276781 3.380274 0.83384
                    CHANNELS 3 Zrotation Yrotation Xrotation
                    JOINT LeftHandThumb2
                    {
                      OFFSET 4.705309 -1e-06 -1e-06
                      CHANNELS 3 Zrotation Yrotation Xrotation
                      JOINT LeftHandThumb3
                      {
                        OFFSET 2.798515 0.0 3e-06
                        CHANNELS 3 Zrotation Yrotation Xrotation
                        JOINT LeftHandThumbEnd
                        {
                          OFFSET 3.180793 4e-06 -4e-06
                          CHANNELS 3 Zrotation Yrotation Xrotation
                        }
                      }
                    }
                  }
                  JOINT LeftHandIndex1
                  {
                    OFFSET 3.247786 2.352677 0.137192
                    CHANNELS 3 Zrotation Yrotation Xrotation
                    JOINT LeftHandIndex2
                    {
                      OFFSET 6.367095 1e-06 0.0
                      CHANNELS 3 Zrotation Yrotation Xrotation
                      JOINT LeftHandIndex3
                      {
                        OFFSET 3.662364 0.0 0.0
                        CHANNELS 3 Zrotation Yrotation Xrotation
                        JOINT LeftHandIndex4
                        {
                          OFFSET 2.329242 4e-06 -4e-06
                          CHANNELS 3 Zrotation Yrotation Xrotation
                          JOINT LeftHandIndexEnd
                          {
                            OFFSET 2.767823 1e-06 0.0
                            CHANNELS 3 Zrotation Yrotation Xrotation
                          }
                        }
                      }
                    }
                  }
                  JOINT LeftHandMiddle1
                  {
                    OFFSET 3.163612 0.945023 -0.406112
                    CHANNELS 3 Zrotation Yrotation Xrotation
                    JOINT LeftHandMiddle2
                    {
                      OFFSET 6.276789 3e-06 0.0
                      CHANNELS 3 Zrotation Yrotation Xrotation
                      JOINT LeftHandMiddle3
                      {
                        OFFSET 4.35652 -1e-06 4e-06
                        CHANNELS 3 Zrotation Yrotation Xrotation
                        JOINT LeftHandMiddle4
                        {
                          OFFSET 2.996877 0.0 8e-06
                          CHANNELS 3 Zrotation Yrotation Xrotation
                          JOINT LeftHandMiddleEnd
                          {
                            OFFSET 2.323256 3e-06 -4e-06
                            CHANNELS 3 Zrotation Yrotation Xrotation
                          }
                        }
                      }
                    }
                  }
                  JOINT LeftHandRing1
                  {
                    OFFSET 2.882606 -0.309162 0.107445
                    CHANNELS 3 Zrotation Yrotation Xrotation
                    JOINT LeftHandRing2
                    {
                      OFFSET 6.033198 0.0 4e-06
                      CHANNELS 3 Zrotation Yrotation Xrotation
                      JOINT LeftHandRing3
                      {
                        OFFSET 4.350578 3e-06 0.0
                        CHANNELS 3 Zrotation Yrotation Xrotation
                        JOINT LeftHandRing4
                        {
                          OFFSET 2.651321 2e-06 -7e-06
                          CHANNELS 3 Zrotation Yrotation Xrotation
                          JOINT LeftHandRingEnd
                          {
                            OFFSET 1.937663 1e-06 -4e-06
                            CHANNELS 3 Zrotation Yrotation Xrotation
                          }
                        }
                      }
                    }
                  }
                  JOINT LeftHandPinky1
                  {
                    OFFSET 2.865315 -1.525436 0.575687
                    CHANNELS 3 Zrotation Yrotation Xrotation
                    JOINT LeftHandPinky2
                    {
                      OFFSET 5.54936 1e-06 -8e-06
                      CHANNELS 3 Zrotation Yrotation Xrotation
                      JOINT LeftHandPinky3
                      {
                        OFFSET 3.070974 0.0 -4e-06
                        CHANNELS 3 Zrotation Yrotation Xrotation
                        JOINT LeftHandPinky4
                        {
                          OFFSET 1.549672 1e-06 0.0
                          CHANNELS 3 Zrotation Yrotation Xrotation
                          JOINT LeftHandPinkyEnd
                          {
                            OFFSET 1.952123 0.0 0.0
                            CHANNELS 3 Zrotation Yrotation Xrotation
                          }
                        }
                      }
                    }
                  }
                }
              }
            }
          }
          JOINT RightShoulder
          {
            OFFSET 23.161716 5.296122 -1.380114
            CHANNELS 3 Zrotation Yrotation Xrotation
            JOINT RightArm
            {
              OFFSET -16.027195 -2e-06 1.1e-05
              CHANNELS 3 Zrotation Yrotation Xrotation
              JOINT RightForeArm
              {
                OFFSET -28.736639 4e-06 2e-06
                CHANNELS 3 Zrotation Yrotation Xrotation
                JOINT RightHand
                {
                  OFFSET -27.133619 6e-06 0.0
                  CHANNELS 3 Zrotation Yrotation Xrotation
                  JOINT RightHandThumb1
                  {
                    OFFSET -2.274328 -3.351035 -0.83067
                    CHANNELS 3 Zrotation Yrotation Xrotation
                    JOINT RightHandThumb2
                    {
                      OFFSET -4.703594 -3e-06 2e-06
                      CHANNELS 3 Zrotation Yrotation Xrotation
                      JOINT RightHandThumb3
                      {
                        OFFSET -2.794935 -4e-06 -3e-06
                        CHANNELS 3 Zrotation Yrotation Xrotation
                        JOINT RightHandThumbEnd
                        {
                          OFFSET -3.183852 4e-06 1e-06
                          CHANNELS 3 Zrotation Yrotation Xrotation
                        }
                      }
                    }
                  }
                  JOINT RightHandIndex1
                  {
                    OFFSET -3.253496 -2.33755 -0.127667
                    CHANNELS 3 Zrotation Yrotation Xrotation
                    JOINT RightHandIndex2
                    {
                      OFFSET -6.344434 0.0 0.0
                      CHANNELS 3 Zrotation Yrotation Xrotation
                      JOINT RightHandIndex3
                      {
                        OFFSET -3.654871 0.0 -8e-06
                        CHANNELS 3 Zrotation Yrotation Xrotation
                        JOINT RightHandIndex4
                        {
                          OFFSET -2.327586 -1e-06 0.0
                          CHANNELS 3 Zrotation Yrotation Xrotation
                          JOINT RightHandIndexEnd
                          {
                            OFFSET -2.770001 3e-06 8e-06
                            CHANNELS 3 Zrotation Yrotation Xrotation
                          }
                        }
                      }
                    }
                  }
                  JOINT RightHandMiddle1
                  {
                    OFFSET -3.168223 -0.944764 0.411762
                    CHANNELS 3 Zrotation Yrotation Xrotation
                    JOINT RightHandMiddle2
                    {
                      OFFSET -6.266691 -1e-06 -4e-06
                      CHANNELS 3 Zrotation Yrotation Xrotation
                      JOINT RightHandMiddle3
                      {
                        OFFSET -4.348901 0.0 0.0
                        CHANNELS 3 Zrotation Yrotation Xrotation
                        JOINT RightHandMiddle4
                        {
                          OFFSET -3.00024 2e-06 -4e-06
                          CHANNELS 3 Zrotation Yrotation Xrotation
                          JOINT RightHandMiddleEnd
                          {
                            OFFSET -2.321477 -4e-06 -4e-06
                            CHANNELS 3 Zrotation Yrotation Xrotation
                          }
                        }
                      }
                    }
                  }
                  JOINT RightHandRing1
                  {
                    OFFSET -2.885654 0.293261 -0.119232
                    CHANNELS 3 Zrotation Yrotation Xrotation
                    JOINT RightHandRing2
                    {
                      OFFSET -6.032835 -1e-06 -4e-06
                      CHANNELS 3 Zrotation Yrotation Xrotation
                      JOINT RightHandRing3
                      {
                        OFFSET -4.33881 0.0 -4e-06
                        CHANNELS 3 Zrotation Yrotation Xrotation
                        JOINT RightHandRing4
                        {
                          OFFSET -2.654903 -4e-06 -4e-06
                          CHANNELS 3 Zrotation Yrotation Xrotation
                          JOINT RightHandRingEnd
                          {
                            OFFSET -1.935122 0.0 4e-06
                            CHANNELS 3 Zrotation Yrotation Xrotation
                          }
                        }
                      }
                    }
                  }
                  JOINT RightHandPinky1
                  {
                    OFFSET -2.866241 1.503904 -0.60527
                    CHANNELS 3 Zrotation Yrotation Xrotation
                    JOINT RightHandPinky2
                    {
                      OFFSET -5.553177 -2e-06 0.0
                      CHANNELS 3 Zrotation Yrotation Xrotation
                      JOINT RightHandPinky3
                      {
                        OFFSET -3.062664 -1e-06 -4e-06
                        CHANNELS 3 Zrotation Yrotation Xrotation
                        JOINT RightHandPinky4
                        {
                          OFFSET -1.546529 2e-06 4e-06
                          CHANNELS 3 Zrotation Yrotation Xrotation
                          JOINT RightHandPinkyEnd
                          {
                            OFFSET -1.952341 0.0 -4e-06
                            CHANNELS 3 Zrotation Yrotation Xrotation
                          }
                        }
                      }
                    }
                  }
                }
              }
            }
          }
        }
      }
    }
    JOINT LeftLeg
    {
      OFFSET -8.443107 2.567604 10.043214
      CHANNELS 3 Zrotation Yrotation Xrotation
      JOINT LeftShin
      {
        OFFSET 43.229198 1e-06 -1e-06
        CHANNELS 3 Zrotation Yrotation Xrotation
        JOINT LeftFoot
        {
          OFFSET 42.298611 1e-06 1e-06
          CHANNELS 3 Zrotation Yrotation Xrotation
          JOINT LeftToeBase
          {
            OFFSET 14.165858 1e-06 0.0
            CHANNELS 3 Zrotation Yrotation Xrotation
            JOINT LeftToeEnd
            {
              OFFSET 6.7141 -0.234461 0.0
              CHANNELS 3 Zrotation Yrotation Xrotation
            }
          }
        }
      }
    }
    JOINT RightLeg
    {
      OFFSET -8.303923 2.592729 -10.047278
      CHANNELS 3 Zrotation Yrotation Xrotation
      JOINT RightShin
      {
        OFFSET -43.369682 0.0 1e-06
        CHANNELS 3 Zrotation Yrotation Xrotation
        JOINT RightFoot
        {
          OFFSET -42.260784 4e-06 2e-06
          CHANNELS 3 Zrotation Yrotation Xrotation
          JOINT RightToeBase
          {
            OFFSET -14.222245 -2e-06 -1e-06
            CHANNELS 3 Zrotation Yrotation Xrotation
            JOINT RightToeEnd
            {
              OFFSET -6.660062 0.232574 -2e-06
              CHANNELS 3 Zrotation Yrotation Xrotation
            }
          }
        }
      }
    }
  }
}
MOTION
Frames: 4
Frame Time: 0.03333333333333333
0.0 0.0 0.0 0.0 -0.0 0.0 -2.863253 91.283279 319.220856 90.309319 -1.459759 89.467697 10.858972 1.228925 -0.085362 -7.228961 0.154575 -0.878498 19.183392 0.929205 -2.080647 21.298019 1.691818 3.025465 -2.488443 -1.208188 -1.885024 -35.56966 -2.03966 -1.545697 6e-06 0.0 -0.0 -0.061155 -0.034237 0.128491 -0.019768 -0.010993 0.150659 -0.056543 -0.058325 0.109179 -31.801088 -74.881416 47.652119 48.145477 -70.874237 -39.760876 117.812553 -0.411219 0.183829 9.83735 2.538827 27.288 17.636625 -26.322729 52.411201 -19.466652 -14.395598 29.410389 -1e-06 -8.774822 -2e-06 15.998093 -17.983406 5.891376 -0.609777 -1.795653 -3.889327 -4.807089 -11.046811 -2.93785 2e-06 -20.976015 1e-06 -5.019971 -25.033558 -4.03188 7e-06 0.0 -2e-06 -10.634535 -5.686971 -3.565587 10.573272 -17.922947 -3.113903 -1e-06 -13.821206 3e-06 -0.501779 -31.181505 -4.027018 -12.060308 -59.755592 7.602044 -13.982716 -7.150199 -2.875041 13.772727 -8.401489 -3.21824 0.347729 -34.211555 0.771658 -0.963029 -17.73337 2.621019 2e-06 0.0 2e-06 -17.346424 -20.095217 -4.201782 21.757557 -1.638375 3.866429 -0.0 -6.338821 2e-06 -1.69759 -22.591745 -6.194006 -3e-06 -3e-06 -1e-06 139.517365 -79.195091 57.349617 27.719557 -65.267982 -26.255335 118.312607 -0.781734 -0.496345 34.910271 4.036314 32.088062 22.182117 -20.375891 49.933323 -16.701817 -16.74353 28.476532 -1e-06 -12.690603 -2e-06 16.270605 -17.37689 1.937276 -0.105919 -1.513857 -4.275882 -5.039041 -5.612874 -2.953554 2e-06 -11.02052 -4e-06 -6.111298 -15.89533 -3.840473 1e-06 1e-06 -0.0 -10.283371 -5.680289 -4.341839 11.028295 -11.302404 -2.372632 -1.384271 -14.238578 -6.320122 -0.625436 -26.924191 -3.827606 -4.561269 -50.009144 -3.247514 -13.708528 -7.363479 -3.720937 18.141155 -14.052737 -3.242676 6e-06 -18.78727 -5e-06 -0.42971 -8.456043 2.555503 -1e-06 -2e-06 -1e-06 -15.923538 -20.094486 -5.473583 30.419218 -7.190824 1.735927 1e-06 -8.162924 -2e-06 -1.861902 -22.861469 -6.167944 -3e-06 -3e-06 -2e-06 163.894592 0.471109 -1.633571 69.637054 -0.005977 -0.002532 -80.558006 -3.721355 -2.67778 -24.993078 1.961852 2.041839 -0.999995 -0.0 0.0 -40.595222 -0.36169 -9.909185 41.188454 0.056738 -0.168578 -73.150673 -11.97586 -2.030363 -7.63113 0.555732 1.605611 -1.000002 1e-06 0.0 
0.0 0.0 0.0 0.0 -0.0 0.0 -3.458436 91.38813 321.984161 90.103523 -1.456146 89.616302 11.228611 1.307228 0.136876 -7.198058 0.162491 -0.853468 19.225094 1.132688 -1.919353 20.872004 1.692801 2.865151 -2.51844 -1.299647 -1.889916 -35.876152 -1.951541 -1.690323 6e-06 -0.0 0.0 -0.053771 -0.026261 0.124978 0.010358 -0.001264 0.156078 -0.018189 -0.054443 0.097573 -31.44895 -75.081627 47.149029 45.236786 -70.90641 -36.7141 118.213516 -0.300572 0.047143 9.931201 2.269504 28.072998 17.636625 -26.322735 52.411194 -19.46665 -14.395596 29.410385 -1e-06 -8.774819 -2e-06 15.886137 -17.867962 5.768352 -0.609776 -1.795653 -3.889329 -4.807087 -11.046807 -2.937848 2e-06 -20.976015 3e-06 -5.019971 -25.033556 -4.031877 6e-06 1e-06 1e-06 -10.634531 -5.68697 -3.565588 10.573271 -17.922947 -3.113899 0.0 -13.821205 3e-06 -0.501778 -31.181498 -4.027014 -11.942844 -59.803394 7.514123 -13.982712 -7.150197 -2.875044 13.772727 -8.401489 -3.218242 0.347731 -34.211544 0.771659 -0.963029 -17.733366 2.621019 0.0 -0.0 1e-06 -17.346415 -20.095215 -4.201779 21.757553 -1.638374 3.866428 -1e-06 -6.338821 2e-06 -1.697589 -22.591742 -6.194004 -1e-06 -4e-06 -2e-06 137.709381 -79.620941 59.250889 25.202393 -64.52108 -23.405622 119.768829 -0.943619 -0.322314 34.804966 3.560027 32.174973 22.182121 -20.375904 49.933327 -16.701811 -16.74353 28.476532 -3e-06 -12.690604 -4e-06 16.388006 -17.461977 1.911848 -0.10592 -1.513857 -4.275882 -5.039042 -5.612873 -2.953556 5e-06 -11.020526 -2e-06 -6.111296 -15.895336 -3.840474 1e-06 -0.0 -0.0 -10.283373 -5.680289 -4.341839 11.028297 -11.302407 -2.372633 -1.38427 -14.238582 -6.320123 -0.625438 -26.924198 -3.827599 -4.501098 -50.044754 -3.37261 -13.708527 -7.363478 -3.720939 18.141151 -14.052741 -3.242673 6e-06 -18.787271 -1e-06 -0.42971 -8.456046 2.555502 2e-06 -0.0 -1e-06 -15.923539 -20.09449 -5.473586 30.419218 -7.190828 1.735927 3e-06 -8.16293 -1e-06 -1.861902 -22.861479 -6.167943 -0.0 -2e-06 -1e-06 158.976151 -0.730432 -2.621438 77.553848 0.278913 -0.113211 -75.18792 -4.616007 -3.319941 -16.515646 1.763582 2.132848 -1.0 0.0 -0.0 -39.785252 0.162723 -9.641502 43.487488 0.100382 -0.216978 -75.172981 -13.021624 -0.439052 -6.742317 0.613088 1.634368 -1.000002 -0.0 0.0 
0.0 0.0 0.0 0.0 -0.0 0.0 -3.964106 91.336594 324.750702 89.805161 -1.469482 89.760567 11.454671 1.405411 0.326795 -7.099594 0.152076 -0.819938 19.499596 1.372064 -1.790347 20.42802 1.782564 2.673777 -2.475601 -1.252149 -1.90689 -36.82563 -2.009022 -1.500491 6e-06 -0.0 1e-06 -0.046999 -0.023727 0.101203 0.017387 0.003924 0.128157 0.002316 -0.0575 0.079563 -32.360783 -75.277084 48.245434 44.172344 -70.659325 -35.497196 118.426682 -0.50007 0.013729 10.215838 1.876415 28.81624 17.636629 -26.322731 52.411201 -19.466665 -14.395598 29.410395 -0.0 -8.774821 -3e-06 15.745734 -17.840332 5.768917 -0.609776 -1.795655 -3.889326 -4.807088 -11.04681 -2.937852 3e-06 -20.976021 -0.0 -5.019972 -25.03356 -4.031882 6e-06 0.0 0.0 -10.634535 -5.686972 -3.565587 10.573277 -17.922951 -3.113903 1e-06 -13.821209 2e-06 -0.501773 -31.181505 -4.027019 -12.039634 -59.770672 7.583772 -13.982715 -7.150199 -2.87504 13.772731 -8.401493 -3.218243 0.347734 -34.211555 0.771654 -0.96303 -17.73337 2.621021 -0.0 -0.0 0.0 -17.34642 -20.095221 -4.201782 21.757559 -1.638375 3.866426 -0.0 -6.338824 3e-06 -1.697589 -22.591742 -6.194008 -3e-06 -5e-06 -1e-06 133.455261 -80.030228 63.72794 23.233248 -63.346466 -20.77034 121.122971 -1.132057 -0.253443 34.808781 3.08076 32.751934 22.182121 -20.375889 49.933319 -16.701811 -16.743528 28.476528 -1e-06 -12.690601 -4e-06 16.27474 -17.543484 1.941683 -0.105921 -1.513858 -4.275881 -5.039042 -5.612873 -2.953553 4e-06 -11.020524 -3e-06 -6.1113 -15.89533 -3.840473 1e-06 -0.0 -1e-06 -10.283373 -5.68029 -4.34184 11.028292 -11.302402 -2.372633 -1.384272 -14.23858 -6.320124 -0.625437 -26.924191 -3.827609 -4.46769 -49.847603 -3.445458 -13.708527 -7.363479 -3.720942 18.141148 -14.052739 -3.242674 4e-06 -18.787271 -5e-06 -0.429711 -8.456042 2.555502 1e-06 -1e-06 0.0 -15.923539 -20.094492 -5.473585 30.419218 -7.190821 1.735928 0.0 -8.162927 -0.0 -1.861904 -22.861469 -6.167944 0.0 -2e-06 -2e-06 154.228348 -1.491694 -2.97108 83.430878 0.462896 -0.185961 -76.121582 -5.456623 -3.184382 -11.383198 1.666103 2.156835 -1.0 0.0 -0.0 -39.098793 0.571184 -10.000201 46.028439 0.014397 -0.26373 -78.550201 -13.266818 0.529613 -6.689066 0.667805 1.651087 -1.000002 1e-06 0.0 
0.0 0.0 0.0 0.0 -0.0 0.0 -4.398148 91.368469 327.386322 89.679535 -1.470975 89.761131 11.635168 1.309358 0.421752 -6.960861 0.108274 -0.734752 19.938017 1.484423 -1.674075 20.017799 1.942974 2.630544 -2.438548 -1.203099 -1.890375 -37.333782 -2.074522 -1.409732 6e-06 0.0 -0.0 -0.051447 -0.023563 0.09957 0.008027 -0.006578 0.124372 -0.005884 -0.048053 0.081185 -33.843815 -75.546364 50.010475 45.068329 -70.531296 -36.21616 118.064804 -0.736023 0.013842 10.626989 1.494303 29.979244 17.636625 -26.322735 52.411194 -19.466658 -14.3956 29.410385 -2e-06 -8.774821 -2e-06 15.699735 -17.864981 5.773109 -0.609777 -1.795653 -3.889328 -4.807087 -11.046809 -2.937851 3e-06 -20.976019 3e-06 -5.01997 -25.033556 -4.031879 7e-06 -0.0 -1e-06 -10.634535 -5.686968 -3.565585 10.573274 -17.922947 -3.1139 2e-06 -13.821206 4e-06 -0.501778 -31.181498 -4.027012 -12.068505 -59.650391 7.55759 -13.982713 -7.150198 -2.875045 13.772729 -8.401489 -3.21824 0.347732 -34.211552 0.77166 -0.96303 -17.73337 2.621019 -0.0 1e-06 2e-06 -17.346415 -20.095215 -4.201781 21.757555 -1.638377 3.866427 1e-06 -6.33882 3e-06 -1.697587 -22.591738 -6.194005 -2e-06 -3e-06 -0.0 128.443649 -80.379593 69.095871 22.523993 -62.493431 -19.261251 121.787216 -1.439393 -0.255438 35.013012 2.559715 33.668098 22.182114 -20.375904 49.933323 -16.701809 -16.743528 28.476534 -4e-06 -12.690598 0.0 16.219332 -17.533628 1.952919 -0.105921 -1.513856 -4.27588 -5.039038 -5.61287 -2.953555 5e-06 -11.020521 -2e-06 -6.111297 -15.89533 -3.84047 1e-06 -1e-06 1e-06 -10.283366 -5.680288 -4.341839 11.028296 -11.302402 -2.372633 -1.384267 -14.238579 -6.32012 -0.625435 -26.924185 -3.8276 -4.426255 -49.714546 -3.522739 -13.708522 -7.363475 -3.720941 18.141146 -14.052739 -3.242672 6e-06 -18.787271 1e-06 -0.429715 -8.456043 2.555503 0.0 0.0 -1e-06 -15.923532 -20.094482 -5.473584 30.419214 -7.190826 1.735926 3e-06 -8.162927 1e-06 -1.861905 -22.861471 -6.167936 -1e-06 -4e-06 -1e-06 149.700607 -1.633589 -2.893347 85.550919 0.543919 -0.237013 -77.822662 -4.984233 -2.839448 -10.387589 1.633425 2.145128 -1.000002 -0.0 -0.0 -38.104599 0.764282 -10.394927 47.881016 0.016739 -0.310734 -81.517349 -13.268387 1.147837 -6.591678 0.701078 1.659279 -1.000002 -0.0 -0.0 
